<?xml version="1.0" standalone="no"?>
<!DOCTYPE svg PUBLIC "-//W3C//DTD SVG 20010904//EN"
 "http://www.w3.org/TR/2001/REC-SVG-20010904/DTD/svg10.dtd">
<svg version="1.0" xmlns="http://www.w3.org/2000/svg"
 width="166.000000pt" height="166.000000pt" viewBox="0 0 166.000000 166.000000"
 preserveAspectRatio="xMidYMid meet">
<metadata>
Created by potrace 1.14, written by Peter Selinger 2001-2017
</metadata>
<g transform="translate(0.000000,166.000000) scale(0.100000,-0.100000)"
fill="#000000" stroke="none">
<path d="M615 1549 c-239 -132 -393 -215 -458 -248 l-47 -24 1 -452 1 -452
104 -51 104 -52 0 428 0 427 247 135 c136 74 253 136 260 138 12 3 358 -192
367 -207 3 -4 -75 -52 -172 -107 l-177 -100 -3 -132 c-1 -73 0 -132 4 -132 3
0 65 33 137 73 73 41 157 88 187 105 30 16 102 57 160 89 l105 59 1 129 c1 72
-1 135 -3 142 -3 7 -109 69 -236 139 -128 70 -262 144 -299 166 -36 21 -70 38
-75 37 -4 0 -98 -50 -208 -110z"/>
<path d="M660 1196 c-14 -7 -47 -27 -75 -44 -27 -18 -65 -39 -82 -47 -31 -14
-33 -18 -33 -68 -3 -368 0 -818 5 -827 3 -6 27 -22 53 -35 26 -14 61 -33 77
-43 17 -9 76 -43 132 -76 l103 -58 47 28 c27 16 55 32 63 36 8 4 148 83 310
176 l295 168 0 215 0 214 -79 42 c-44 24 -83 43 -87 43 -5 0 -187 -106 -197
-115 -2 -2 32 -24 76 -50 l80 -46 0 -89 0 -89 -100 -58 c-55 -32 -112 -65
-127 -73 -14 -9 -81 -48 -149 -89 l-123 -73 -77 40 -77 41 -5 445 -5 446 -25
-14z"/>
</g>
</svg>
