<?xml version="1.0" encoding="utf-8"?>
<!-- Generator: Adobe Illustrator 27.3.1, SVG Export Plug-In . SVG Version: 6.00 Build 0)  -->
<svg version="1.1" id="Layer_1" xmlns="http://www.w3.org/2000/svg" xmlns:xlink="http://www.w3.org/1999/xlink" x="0px" y="0px"
	 viewBox="0 0 167.7 167.7" style="enable-background:new 0 0 167.7 167.7;" xml:space="preserve">
<g id="j1V8Wh.tif">
	<g>
		<path d="M83.8,167.7C36,166.7,0.7,133.2,0,83.4C-0.6,37.4,37.8-0.1,84.1,0c46.1,0.1,84.5,37.9,83.6,83.7
			C166.7,134.1,130.9,166.8,83.8,167.7z M83.8,162c42.7,0.1,78.6-34.8,77.9-77.4c-0.7-50.5-37.9-78.1-77.6-78.2
			C44.1,6.3,6.9,33.9,6,84.4C5.2,126.9,41,161.9,83.8,162z"/>
		<path d="M121.6,28.2c-0.3-0.7-1.4-1.1-2.2-1.6c-8.6-5.3-17.9-8.5-28-9.7C90.6,11.8,88,9.1,84,9c-4.1-0.1-6.7,2.5-7.9,7.6
			C42.5,23,22.7,42.8,16.5,76.3c-4.6,0.7-7.3,3.1-7.6,6.9c-0.4,4.1,1.8,6.5,8,8.6c1.2,9.7,4.3,18.8,9.4,27.1c0.6,0.9,1,2.2,1.8,2.6
			c1.1,0.6,2.7,1.1,3.7,0.7c1.5-0.6,2-2.2,1.2-3.8c-0.4-0.8-0.9-1.6-1.4-2.4c-4.6-7.6-7.5-15.7-8.6-24.6c3.9-0.9,6.7-3.1,6.9-7.2
			c0.2-4.7-2.8-7-6.8-8.1c4.2-32.3,31.3-51.4,53.3-53c1.5,4.4,3.7,6.5,7.1,6.6c4.7,0.1,7-2.7,8.1-6.9c9,1.1,17.2,4,24.7,8.7
			c0.8,0.5,1.6,1.3,2.4,1.3c1.2,0,3-0.3,3.6-1.1C122.7,31.1,122.1,29.3,121.6,28.2z M23.7,83.9c0,0.5-0.8,1.4-1.2,1.5
			c-2.1,0.2-4.1,0.2-6.2,0c-0.5,0-1.3-0.9-1.3-1.4c0-0.5,0.8-1.2,1.3-1.4l5.9,0C22.8,82.7,23.6,83.4,23.7,83.9z M85.3,22.2
			c-0.1,0.6-1,1.1-1.5,1.6c-0.5-0.6-1.2-1.1-1.4-1.7c-0.2-0.8-0.1-1.8-0.1-2.7c0-0.9-0.2-1.9,0.1-2.7c0.2-0.6,1-1.1,1.5-1.6
			c0.5,0.6,1.3,1.1,1.4,1.7C85.5,18.6,85.5,20.4,85.3,22.2z"/>
		<path d="M150.9,76.1c-0.2-1.1-0.4-2.2-0.5-3.4c-1.5-9.2-4.9-17.8-10-25.7c-1.1-1.7-2.4-2.8-4.5-1.7c-1.8,1-1.9,2.6-0.5,5
			c1.5,2.6,3.1,5.2,4.3,7.9c2.7,5.7,4.5,11.8,5.1,18.1c-4.5,1.5-6.7,3.7-6.8,7.2c-0.1,4.5,2.6,6.9,6.7,8
			c-3.1,28.1-26.6,50.4-53.3,53.1c-0.9-3.8-3-6.5-7.2-6.7c-4.7-0.2-7,2.8-8.1,6.9c-9.5-1.2-18.1-4.4-26-9.5
			c-2.1-1.4-3.7-1.1-4.8,0.5c-1,1.6-0.6,3.3,1.6,4.5c3.4,2,6.7,4.1,10.4,5.5c6.1,2.2,12.5,3.9,19,5.9c0.9,4.5,3.6,7.2,7.6,7.1
			c4,0,6.6-2.7,7.6-7.6c33.7-6.4,53.4-26.3,59.6-59.7c4.8-0.9,7.5-3.5,7.6-7.5C158.9,80.1,156.4,77.5,150.9,76.1z M85.3,151.3
			c-0.2,0.6-1,1.1-1.5,1.6c-0.5-0.5-1.3-1-1.3-1.5c-0.2-1.9-0.2-3.8,0-5.7c0.1-0.6,1-1.1,1.5-1.6c0.5,0.5,1.2,0.9,1.3,1.5
			c0.2,0.9,0.1,2,0.1,3C85.3,149.5,85.5,150.4,85.3,151.3z M151.1,82.5c0.7,0.2,1.2,0.9,1.7,1.4c-0.5,0.5-1.1,1.4-1.6,1.5
			c-1.8,0.2-3.7,0.2-5.5,0c-0.6-0.1-1.1-0.9-1.7-1.4c0.6-0.5,1.2-1.2,1.9-1.5"/>
		<path d="M119.7,48c-1-0.6-2.5-0.3-3.8-0.3c-0.4,0-0.7,0.4-1.1,0.6L72.1,75.2C64,88.5,56,102,47.9,115.4c-0.4,0.7-0.7,1.5-1.4,2.7
			c0.8,0.8,1.5,2.2,2.5,2.5c1,0.3,2.4-0.2,3.4-0.8c13.5-8,26.9-16.1,40.3-24.2c1.1-0.7,2.2-1.8,2.9-3c5.3-8.7,10.5-17.4,15.7-26.1
			c2.9-4.9,5.8-9.7,8.7-14.6C121,50.6,121.2,48.9,119.7,48z M59.7,108.6c-0.1-0.1-0.3-0.2-0.4-0.3c1.3-2.1,2.5-4.3,4-6.8
			c1,1.2,1.8,2,2.8,3.2C63.9,105.9,61.8,107.3,59.7,108.6z M99.8,74.3c-1.4,1.7-2.5,3.7-3.5,5.8C92.9,87.5,87.5,93,80,96.4
			c-2.3,1.1-4.4,2.6-6.7,3.9c-0.5,0.3-1,0.5-1.5,0.8c-0.2,0.2-0.5,0.3-0.7,0.5c-1.4-1.7-2.9-3.2-4-5c-0.4-0.6,0.3-1.9,0.7-2.8
			c1.1-2,2.5-3.8,3.4-5.8c3.5-7.7,9-13.2,16.6-16.6c2-0.9,3.9-2,5.5-3.4c2.4-2,3.7-0.4,5.2,1.1C100.1,70.6,101.8,71.9,99.8,74.3z
			 M104.4,66.5c-1.1-1.1-1.9-2-3-3.1c2.2-1.4,4.4-2.7,6.6-4c0.1,0.1,0.3,0.2,0.4,0.4C107.2,61.9,105.9,64,104.4,66.5z"/>
	</g>
</g>
</svg>
