<?xml version="1.0" encoding="utf-8"?>
<!-- Generator: Adobe Illustrator 27.3.1, SVG Export Plug-In . SVG Version: 6.00 Build 0)  -->
<svg version="1.1" id="Layer_1" xmlns="http://www.w3.org/2000/svg" xmlns:xlink="http://www.w3.org/1999/xlink" x="0px" y="0px"
	 viewBox="0 0 167.7 167.7" style="enable-background:new 0 0 167.7 167.7;" xml:space="preserve">
<style type="text/css">
	.st0{fill:#FFFFFF;}
</style>
<g id="_x33_2FWDl.tif">
	<g>
		<path d="M173.5,83.8c-0.1,49.5-40.1,89.6-89.5,89.7c-49.5,0-89.7-40.1-89.6-89.7C-5.4,34.4,34.8-5.9,84.1-5.8
			C133.6-5.7,173.6,34.3,173.5,83.8z M104.9,41.7c0,4,0.1,7.7,0,11.3c-0.1,1.7,0.5,2.7,1.8,3.8c4.9,4,9.8,8,14.6,12.2
			c0.9,0.8,1.5,2.4,1.4,3.6c-0.2,1.7-1.8,2.2-3.5,2.1c-1.8,0-3.7,0-5.5,0c-2.9,0-5.7,0-8.8,0c0,4.9-0.1,9.4,0.1,13.9
			c0,1.1,0.5,2.3,1.1,3.1c3.2,4.3,5.3,9,5.9,14.4c0.9,8.4-1.5,15.8-7,22.2c0.2,0.3,0.3,0.5,0.5,0.6c8,5.9,11.6,13.9,11.4,23.8
			c-0.1,2.5,0,5.1,0,7.7c30.5-12.3,56.3-47.7,49.5-90.2c-6.6-40.8-43.2-71.3-84.2-70.1C39.3,1.3,5.1,32.7,0.7,75.8
			c-4.3,42.7,23.8,74.4,50.4,84.6c-1.2-12.6,0.6-24,11.9-31.6c-0.3-0.4-0.4-0.6-0.5-0.8c-9.2-11.6-9.3-24.6-0.4-36.5
			c0.3-0.5,0.8-1,0.8-1.5c0.1-5,0-10,0-15.2c-4.7,0-9.1,0-13.5,0c-1.8,0-3.6,0-4.3-2.1c-0.7-2,0.7-3.1,2-4.1c4.8-4,9.6-8,14.4-12
			c0.6-0.5,1.3-1.3,1.4-1.9c0.1-4.2,0.1-8.4,0.1-12.9c-4.9,0-9.5,0-14,0c-1.7,0-3.5-0.3-3.7-2.2c-0.1-1.2,0.7-2.9,1.6-3.7
			C58.1,26.2,69.6,16.8,81,7.3c2.5-2.1,3.4-2.1,5.9,0c11.4,9.5,22.8,19,34.2,28.5c1.3,1.1,2.4,2.2,1.7,4c-0.7,1.8-2.3,2-3.9,2
			C114.3,41.7,109.8,41.7,104.9,41.7z M83.8,131.7c12.3,0,22.3-9.8,22.4-22.1c0.1-12.3-10-22.5-22.3-22.5
			c-12.1,0-22.3,10.2-22.3,22.3C61.7,121.7,71.6,131.7,83.8,131.7z M104.9,164.7c1.4-0.4,2.5-0.8,3.7-1c2-0.3,2.5-1.3,2.4-3.3
			c-0.2-3.4,0.1-6.8-0.1-10.2c-0.3-6.9-3.4-12.4-9-16.5c-1.1-0.8-2-0.9-3.3-0.2c-9.7,5.6-19.4,5.6-29.2,0.2c-0.7-0.4-2.1-0.4-2.8,0
			c-4.9,3.1-8.2,7.5-9,13.2c-0.7,4.9-0.4,10-0.6,14.9c0,0.4,0.3,1.1,0.6,1.2c1.7,0.6,3.4,1.1,5.3,1.6c0-2.8,0-5.2,0-7.5
			c0-2.6,1.1-4.1,2.9-4.1c1.9,0,3,1.5,3.1,4.1c0,2.9,0,5.8,0,8.6c7.1,2.1,23.7,2.1,30.1,0c0-2.9,0-5.9,0-8.9c0-2.3,1.3-3.9,3.1-3.7
			c2.1,0.2,2.9,1.6,2.9,3.7C104.9,159.2,104.9,161.7,104.9,164.7z M110.9,68.7c0-0.2,0.1-0.4,0.1-0.6c-9-7.5-18-15-27-22.5
			c-9.2,7.7-18.2,15.1-27.2,22.6c0.3,0.2,0.4,0.4,0.5,0.4c2.4,0,4.8,0,7.2,0c3.6,0,4.4,0.8,4.4,4.4c0,4,0,7.9,0,12.2
			c10.1-5.6,20-5.6,30,0c0-4.4,0-8.5,0-12.6c0-3.1,1-4,4.1-4C105.6,68.7,108.2,68.7,110.9,68.7z M68.9,50.3c4.3-3.6,8-6.7,11.8-9.8
			c2.8-2.3,3.6-2.3,6.4,0.1c2.4,2,4.9,4,7.3,6.1c1.4,1.1,2.7,2.3,4.4,3.7c0-3.8,0-7.1,0-10.3c0-3.4,0.9-4.2,4.3-4.3
			c2.6,0,5.2,0,8.4,0c-9.6-8-18.6-15.5-27.7-23.1c-9.2,7.6-18.2,15.1-27.7,23.1c3.4,0,6.1,0,8.7,0c3.1,0,4,1,4,4.1
			C68.9,43.1,68.9,46.4,68.9,50.3z"/>
		<path class="st0" d="M104.9,41.7c4.9,0,9.4,0,13.8,0c1.7,0,3.2-0.2,3.9-2c0.7-1.8-0.4-3-1.7-4c-11.4-9.5-22.8-19-34.2-28.5
			c-2.4-2-3.4-2-5.9,0c-11.4,9.5-22.8,19-34.1,28.5c-1,0.8-1.8,2.5-1.6,3.7c0.2,1.8,2,2.2,3.7,2.2c4.6,0,9.2,0,14,0
			c0,4.4,0.1,8.6-0.1,12.9c0,0.7-0.8,1.4-1.4,1.9c-4.8,4-9.6,8-14.4,12c-1.3,1.1-2.7,2.2-2,4.1c0.7,2.1,2.5,2.1,4.3,2.1
			c4.4,0,8.8,0,13.5,0c0,5.2,0,10.2,0,15.2c0,0.5-0.4,1-0.8,1.5c-8.9,11.9-8.7,24.9,0.4,36.5c0.1,0.2,0.3,0.4,0.5,0.8
			c-11.3,7.6-13.1,19.1-11.9,31.6C24.5,150.2-3.6,118.5,0.7,75.8c4.4-43,38.6-74.4,81.4-75.7c41.1-1.2,77.6,29.2,84.2,70.1
			c6.8,42.5-19,77.9-49.5,90.2c0-2.6-0.1-5.2,0-7.7c0.2-9.9-3.4-17.8-11.4-23.8c-0.2-0.1-0.3-0.4-0.5-0.6c5.4-6.4,7.9-13.8,7-22.2
			c-0.6-5.4-2.7-10.1-5.9-14.4c-0.6-0.8-1.1-2.1-1.1-3.1c-0.1-4.5-0.1-9-0.1-13.9c3,0,5.9,0,8.8,0c1.8,0,3.7,0,5.5,0
			c1.6,0,3.3-0.4,3.5-2.1c0.1-1.2-0.5-2.8-1.4-3.6c-4.7-4.2-9.6-8.2-14.6-12.2c-1.3-1-1.8-2.1-1.8-3.8
			C105,49.4,104.9,45.7,104.9,41.7z M149.8,112.1C149.8,112.1,149.8,112.1,149.8,112.1c1.2,0,2.5,0.4,3.4-0.1
			c1.1-0.6,2.4-1.8,2.4-2.8c0-1-1.4-2.6-2.4-2.8c-2.2-0.4-4.7-0.4-6.9,0c-1,0.2-2.2,1.8-2.3,2.9c-0.1,0.9,1.3,2.2,2.3,2.7
			C147.3,112.5,148.7,112.1,149.8,112.1z M45,91.3C45,91.3,45,91.3,45,91.3c-1.2,0-2.5-0.4-3.4,0.1c-1.1,0.6-2.4,1.9-2.4,2.8
			c0,1,1.4,2.6,2.4,2.8c2.2,0.4,4.7,0.4,6.9,0c0.9-0.2,2.3-1.8,2.3-2.6c-0.1-1.1-1.3-2.4-2.3-2.9C47.5,90.9,46.1,91.3,45,91.3z
			 M27.1,87.3c-0.2-0.9-0.2-1.4-0.4-1.6c-1.9-2-3.7-4-5.8-5.7c-0.6-0.5-2.7,0-3.2,0.7c-0.6,0.8-0.8,2.7-0.2,3.5
			c1.3,1.9,3.1,3.5,4.9,4.9c0.7,0.5,2.1,0.6,3,0.2C26.1,89,26.6,87.9,27.1,87.3z M17.7,97.2C17.7,97.2,17.7,97.2,17.7,97.2
			c1.2,0,2.3,0.1,3.5,0c1.7-0.2,3-1.3,2.6-3c-0.2-1.1-1.5-2.6-2.5-2.8c-2.2-0.4-4.5-0.4-6.7,0c-1,0.2-2.3,1.7-2.5,2.8
			c-0.4,1.6,0.9,2.8,2.6,3C15.6,97.3,16.7,97.2,17.7,97.2z M122.9,106.2c-1.1,0-2.2-0.1-3.2,0c-1.7,0.2-3,1.3-2.6,3
			c0.2,1.1,1.5,2.6,2.5,2.8c2.2,0.4,4.5,0.4,6.7,0c1-0.2,2.3-1.7,2.5-2.8c0.4-1.6-0.9-2.8-2.6-3C125.1,106.1,124,106.2,122.9,106.2z
			 M46,105.6c0-0.1,0-0.6-0.2-0.8c-2-2-4-4.2-6.2-5.9c-0.5-0.4-2.4,0.2-3,0.9c-0.6,0.7-0.8,2.5-0.4,3.1c1.6,2,3.4,3.9,5.4,5.5
			C43.5,109.8,46,108.1,46,105.6z M151.1,121.3c-0.2-0.8-0.1-1.3-0.3-1.5c-2-2-3.8-4.1-6-5.8c-0.6-0.4-2.7,0.1-3.1,0.9
			c-0.6,0.9-0.6,2.7-0.1,3.5c1.3,1.8,2.9,3.4,4.7,4.7c0.7,0.6,2.2,0.6,3.2,0.2C150.3,123,150.7,121.8,151.1,121.3z M151.4,97.3
			c-0.7-0.8-1.1-2-2-2.3c-0.9-0.3-2.4-0.2-3.2,0.3c-1.7,1.2-3.1,2.8-4.5,4.3c-1.3,1.4-1.3,2.9,0,4.2c1.3,1.3,2.9,1.2,4.2,0
			c1.4-1.3,2.8-2.6,4-4.1C150.6,99.2,150.8,98.4,151.4,97.3z M131.9,101.5c-0.1-0.2,0-0.7-0.3-1c-1.8-1.9-3.6-3.9-5.6-5.5
			c-0.6-0.5-2.5-0.2-3.1,0.4c-0.7,0.7-1.3,2.7-0.8,3.2c1.7,2.2,3.7,4.3,5.9,5.9C129.7,105.6,132,103.8,131.9,101.5z M27.3,101.4
			c-0.6-0.8-1.1-2-1.9-2.3c-0.9-0.4-2.4-0.3-3.2,0.3c-1.7,1.3-3.2,2.9-4.6,4.5c-1.1,1.3-1.1,2.8,0.1,4c1.2,1.2,2.7,1.3,4,0.1
			c1.6-1.4,3.1-3,4.6-4.6C26.7,103,26.8,102.3,27.3,101.4z M34.4,80.8C34.4,80.8,34.4,80.8,34.4,80.8c0-1.1,0.1-2.2,0-3.2
			c-0.2-1.7-1.2-2.8-3-2.8c-1.7,0-2.8,1-2.9,2.8c-0.1,2.1-0.3,4.4,0.1,6.4c0.2,1,1.6,2.3,2.7,2.6c1.6,0.4,2.8-0.8,3-2.5
			C34.5,82.9,34.4,81.8,34.4,80.8z M35.5,86.9c0.6,0.9,1.1,2.1,1.9,2.4c1,0.3,2.5,0.2,3.4-0.4c1.6-1.1,2.9-2.7,4.3-4.1
			c1.2-1.3,1.4-2.9,0.1-4.2c-1.4-1.4-3-1.3-4.4,0.1c-1.3,1.3-2.6,2.5-3.9,3.9C36.4,85.1,36.1,85.9,35.5,86.9z M139.4,95.7
			C139.4,95.7,139.4,95.7,139.4,95.7c0-1,0-2,0-3c-0.1-1.8-1.2-3-3-3c-1.9,0-2.9,1.2-2.9,3c-0.1,1.9-0.1,3.8,0,5.7
			c0.1,1.8,1,3,2.9,3.1c2,0,3-1.2,3.1-3.2C139.4,97.6,139.4,96.6,139.4,95.7z M34.4,107.7C34.4,107.7,34.4,107.7,34.4,107.7
			c0-0.9,0.1-1.8,0-2.7c-0.1-2-1.1-3.2-3.1-3.2c-1.9,0-2.8,1.2-2.9,3.1c-0.1,2-0.1,4,0,6c0.1,1.7,1.2,2.8,2.9,2.8c1.7,0,2.8-1,3-2.7
			C34.5,109.8,34.4,108.8,34.4,107.7z M133.4,122.7c0,0.9,0,1.8,0,2.7c0.1,2,1.1,3.2,3,3.2c1.9,0,2.9-1.2,2.9-3.1
			c0.1-1.9,0.1-3.8,0-5.7c-0.1-1.8-1.1-3-2.9-3.1c-2,0-3,1.2-3.1,3.2C133.4,120.9,133.4,121.8,133.4,122.7z M132.3,116.5
			c-0.6-0.8-1.1-2.1-1.9-2.4c-1-0.3-2.6-0.2-3.4,0.3c-1.7,1.2-3.1,2.8-4.4,4.3c-1.1,1.3-1.2,2.8,0,4c1.3,1.3,2.8,1.3,4.2,0.1
			c1.5-1.4,2.9-2.8,4.2-4.2C131.5,118.2,131.8,117.5,132.3,116.5z M35.5,93.7c0-2.3-1.9-4.1-4.2-4c-2.2,0.1-3.9,1.8-3.9,4
			c0,2.3,1.8,4.2,4.1,4.2C33.7,97.9,35.5,96,35.5,93.7z M136,113.3c2.2,0.1,4.1-1.8,4.2-4.1c0-2.2-1.8-4.2-4-4.2
			c-2.2,0-4.1,1.9-4.2,4.1C131.9,111.3,133.8,113.3,136,113.3z"/>
		<path d="M149.8,112.1c-1.2,0-2.5,0.4-3.4-0.1c-1-0.5-2.3-1.8-2.3-2.7c0.1-1.1,1.3-2.7,2.3-2.9c2.2-0.4,4.7-0.4,6.9,0
			c1,0.2,2.4,1.8,2.4,2.8c0,1-1.4,2.3-2.4,2.8C152.3,112.5,151,112.1,149.8,112.1C149.8,112.1,149.8,112.1,149.8,112.1z"/>
		<path d="M45,91.3c1.2,0,2.5-0.4,3.4,0.1c1.1,0.6,2.3,1.9,2.3,2.9c0.1,0.9-1.3,2.5-2.3,2.6c-2.2,0.4-4.7,0.4-6.9,0
			c-1-0.2-2.4-1.8-2.4-2.8c0-1,1.3-2.3,2.4-2.8C42.4,90.9,43.8,91.3,45,91.3C45,91.3,45,91.3,45,91.3z"/>
		<path d="M27.1,87.3c-0.5,0.6-1,1.7-1.8,2.1c-0.8,0.4-2.3,0.3-3-0.2c-1.8-1.4-3.5-3.1-4.9-4.9c-0.6-0.8-0.4-2.7,0.2-3.5
			c0.5-0.7,2.6-1.2,3.2-0.7c2.1,1.7,4,3.7,5.8,5.7C26.9,85.9,26.9,86.4,27.1,87.3z"/>
		<path d="M17.7,97.2c-1,0-2,0.1-3,0c-1.7-0.2-3-1.3-2.6-3c0.2-1.1,1.5-2.6,2.5-2.8c2.2-0.4,4.5-0.4,6.7,0c1,0.2,2.3,1.7,2.5,2.8
			c0.4,1.6-0.9,2.8-2.6,3C20,97.3,18.8,97.2,17.7,97.2C17.7,97.2,17.7,97.2,17.7,97.2z"/>
		<path d="M122.9,106.2c1.1,0,2.2-0.1,3.2,0c1.7,0.2,3,1.3,2.6,3c-0.2,1.1-1.5,2.6-2.5,2.8c-2.2,0.4-4.5,0.4-6.7,0
			c-1-0.2-2.3-1.7-2.5-2.8c-0.4-1.6,0.9-2.8,2.6-3C120.7,106.1,121.8,106.2,122.9,106.2z"/>
		<path d="M46,105.6c0,2.5-2.5,4.1-4.3,2.7c-2-1.6-3.8-3.5-5.4-5.5c-0.5-0.6-0.2-2.4,0.4-3.1c0.6-0.7,2.5-1.3,3-0.9
			c2.2,1.8,4.2,3.9,6.2,5.9C46,105.1,46,105.5,46,105.6z"/>
		<path d="M151.1,121.3c-0.4,0.6-0.9,1.7-1.7,2.1c-0.9,0.4-2.4,0.3-3.2-0.2c-1.8-1.3-3.4-2.9-4.7-4.7c-0.6-0.8-0.5-2.7,0.1-3.5
			c0.5-0.7,2.6-1.3,3.1-0.9c2.2,1.7,4.1,3.8,6,5.8C151,120,151,120.5,151.1,121.3z"/>
		<path d="M151.4,97.3c-0.5,1-0.8,1.9-1.3,2.4c-1.3,1.4-2.6,2.8-4,4.1c-1.3,1.2-2.9,1.4-4.2,0c-1.3-1.3-1.3-2.9,0-4.2
			c1.4-1.5,2.8-3.1,4.5-4.3c0.8-0.6,2.2-0.6,3.2-0.3C150.2,95.3,150.7,96.5,151.4,97.3z"/>
		<path d="M131.9,101.5c0,2.3-2.3,4.1-3.9,2.9c-2.3-1.6-4.2-3.7-5.9-5.9c-0.4-0.6,0.1-2.5,0.8-3.2c0.6-0.6,2.5-0.9,3.1-0.4
			c2.1,1.6,3.8,3.6,5.6,5.5C131.9,100.8,131.9,101.3,131.9,101.5z"/>
		<path d="M27.3,101.4c-0.4,0.9-0.6,1.6-1,2.1c-1.5,1.6-3,3.1-4.6,4.6c-1.3,1.2-2.8,1.1-4-0.1c-1.2-1.2-1.2-2.8-0.1-4
			c1.4-1.6,2.9-3.2,4.6-4.5c0.7-0.6,2.3-0.6,3.2-0.3C26.2,99.4,26.6,100.6,27.3,101.4z"/>
		<path d="M34.4,80.8c0,1.1,0.1,2.2,0,3.2c-0.2,1.7-1.4,2.9-3,2.5c-1.1-0.3-2.5-1.5-2.7-2.6c-0.4-2.1-0.2-4.3-0.1-6.4
			c0.1-1.7,1.2-2.8,2.9-2.8c1.7,0,2.8,1,3,2.8C34.5,78.6,34.4,79.7,34.4,80.8C34.4,80.8,34.4,80.8,34.4,80.8z"/>
		<path d="M35.5,86.9c0.6-1,0.9-1.8,1.4-2.4c1.2-1.4,2.5-2.6,3.9-3.9c1.4-1.4,3-1.5,4.4-0.1c1.3,1.3,1.1,2.9-0.1,4.2
			c-1.4,1.5-2.7,3-4.3,4.1c-0.8,0.6-2.4,0.7-3.4,0.4C36.6,89,36.2,87.7,35.5,86.9z"/>
		<path d="M139.4,95.7c0,0.9,0,1.8,0,2.7c-0.1,2-1.1,3.2-3.1,3.2c-1.9,0-2.8-1.2-2.9-3.1c-0.1-1.9-0.1-3.8,0-5.7
			c0.1-1.8,1.1-3,2.9-3c1.9,0,2.9,1.1,3,3C139.5,93.7,139.4,94.7,139.4,95.7C139.4,95.7,139.4,95.7,139.4,95.7z"/>
		<path d="M34.4,107.7c0,1.1,0.1,2.2,0,3.2c-0.2,1.7-1.3,2.7-3,2.7c-1.7,0-2.8-1.1-2.9-2.8c-0.1-2-0.1-4,0-6c0-1.8,1-3,2.9-3.1
			c2,0,3,1.2,3.1,3.2C34.4,105.9,34.4,106.8,34.4,107.7C34.4,107.7,34.4,107.7,34.4,107.7z"/>
		<path d="M133.4,122.7c0-0.9,0-1.8,0-2.7c0.1-2,1.1-3.2,3.1-3.2c1.9,0,2.9,1.2,2.9,3.1c0.1,1.9,0.1,3.8,0,5.7
			c-0.1,1.8-1.1,3-2.9,3.1c-2,0-3-1.2-3-3.2C133.4,124.5,133.4,123.6,133.4,122.7z"/>
		<path d="M132.3,116.5c-0.5,0.9-0.8,1.7-1.2,2.2c-1.3,1.5-2.8,2.9-4.2,4.2c-1.4,1.3-2.9,1.3-4.2-0.1c-1.2-1.2-1.2-2.8,0-4
			c1.4-1.5,2.8-3.1,4.4-4.3c0.8-0.6,2.4-0.7,3.4-0.3C131.2,114.4,131.7,115.7,132.3,116.5z"/>
		<path d="M35.5,93.7c0,2.3-1.8,4.2-4.1,4.2c-2.3,0-4.1-1.9-4.1-4.2c0-2.2,1.7-4,3.9-4C33.6,89.7,35.4,91.5,35.5,93.7z"/>
		<path d="M136,113.3c-2.2-0.1-4.1-2-4-4.2c0-2.2,2-4.1,4.2-4.1c2.2,0,4.1,2,4,4.2C140.1,111.5,138.2,113.4,136,113.3z"/>
	</g>
</g>
</svg>
