<?xml version="1.0" encoding="utf-8"?>
<!-- Generator: Adobe Illustrator 27.3.1, SVG Export Plug-In . SVG Version: 6.00 Build 0)  -->
<svg version="1.1" id="Layer_1" xmlns="http://www.w3.org/2000/svg" xmlns:xlink="http://www.w3.org/1999/xlink" x="0px" y="0px"
	 viewBox="0 0 548.1 165.8" style="enable-background:new 0 0 548.1 165.8;" xml:space="preserve">
<style type="text/css">
	.st0{fill:#FFFFFF;}
	.st1{fill:url(#SVGID_1_);}
	.st2{fill:url(#SVGID_00000037677026578871802610000006729955862595317925_);}
	.st3{fill:url(#SVGID_00000160164397201710702590000015536222329951147674_);}
	.st4{fill:url(#SVGID_00000170259310692991555740000003228280570833455755_);}
</style>
<g>
	<polygon class="st0" points="35.7,57.8 57.7,44.8 57.7,133.8 73.7,142.3 123.7,112.8 123.7,94.6 107.7,85.8 127.7,73.8 144.8,82.8 
		144.8,124.8 72.7,165.8 35.7,144.8 	"/>
	<g>
		<linearGradient id="SVGID_1_" gradientUnits="userSpaceOnUse" x1="0" y1="47" x2="132.2521" y2="47">
			<stop  offset="0" style="stop-color:#7E2336;stop-opacity:0.75"/>
			<stop  offset="2.321612e-02" style="stop-color:#852539;stop-opacity:0.786"/>
			<stop  offset="5.639929e-02" style="stop-color:#982A41;stop-opacity:0.8374"/>
			<stop  offset="9.557088e-02" style="stop-color:#B6334F;stop-opacity:0.8981"/>
			<stop  offset="0.139" style="stop-color:#E13F61;stop-opacity:0.9653"/>
			<stop  offset="0.1614" style="stop-color:#FA466C"/>
			<stop  offset="0.2513" style="stop-color:#F24772"/>
			<stop  offset="0.3872" style="stop-color:#DE4A82"/>
			<stop  offset="0.5519" style="stop-color:#BC4E9C"/>
			<stop  offset="0.7394" style="stop-color:#8D54C0"/>
			<stop  offset="0.9435" style="stop-color:#515CED"/>
			<stop  offset="1" style="stop-color:#3F5EFB"/>
		</linearGradient>
		<polygon class="st1" points="71.3,0 0,42.1 21,53.1 72.3,25 110.3,47 73.3,68 73.3,94 132.3,61 132.3,33.5 		"/>
		
			<linearGradient id="SVGID_00000156549716514144963440000012462670712710307221_" gradientUnits="userSpaceOnUse" x1="10.5" y1="40.6634" x2="10.5" y2="131.7294">
			<stop  offset="0" style="stop-color:#972A40"/>
			<stop  offset="4.821729e-02" style="stop-color:#9E2C44"/>
			<stop  offset="0.1171" style="stop-color:#B1324D"/>
			<stop  offset="0.198" style="stop-color:#CF3C5E"/>
			<stop  offset="0.2768" style="stop-color:#F44771"/>
			<stop  offset="0.3558" style="stop-color:#EB4878"/>
			<stop  offset="0.4852" style="stop-color:#D24B8B"/>
			<stop  offset="0.6488" style="stop-color:#AA50A9"/>
			<stop  offset="0.8382" style="stop-color:#7457D3"/>
			<stop  offset="1" style="stop-color:#3F5EFB"/>
		</linearGradient>
		<polygon style="fill:url(#SVGID_00000156549716514144963440000012462670712710307221_);" points="0,38.1 0.3,128.5 20.8,138.5 
			20.8,53.5 21,30.1 		"/>
	</g>
	<g>
		
			<linearGradient id="SVGID_00000036253267624981263730000016496794481572384688_" gradientUnits="userSpaceOnUse" x1="1" y1="26.541" x2="132" y2="26.541">
			<stop  offset="0" style="stop-color:#7E2336;stop-opacity:0.75"/>
			<stop  offset="0" style="stop-color:#852539;stop-opacity:0.786"/>
			<stop  offset="0" style="stop-color:#982A41;stop-opacity:0.8374"/>
			<stop  offset="0" style="stop-color:#B6334F;stop-opacity:0.8981"/>
			<stop  offset="0" style="stop-color:#E13F61;stop-opacity:0.9653"/>
			<stop  offset="0" style="stop-color:#FA466C"/>
			<stop  offset="0.1073" style="stop-color:#F24772"/>
			<stop  offset="0.2692" style="stop-color:#DE4A82"/>
			<stop  offset="0.4657" style="stop-color:#BC4E9C"/>
			<stop  offset="0.6893" style="stop-color:#8D54C0"/>
			<stop  offset="0.9326" style="stop-color:#515CED"/>
			<stop  offset="1" style="stop-color:#3F5EFB"/>
		</linearGradient>
		<polygon style="fill:url(#SVGID_00000036253267624981263730000016496794481572384688_);" points="132,34.1 132,34.1 71.3,0 
			1,38.1 21,53.1 72.3,25 110,47.1 		"/>
		
			<linearGradient id="SVGID_00000098931409829339248820000015088146101001669265_" gradientUnits="userSpaceOnUse" x1="73.2521" y1="64.8554" x2="132.2521" y2="64.8554">
			<stop  offset="0" style="stop-color:#7E2336;stop-opacity:0.75"/>
			<stop  offset="5.527620e-02" style="stop-color:#852539;stop-opacity:0.7572"/>
			<stop  offset="0.1343" style="stop-color:#982A41;stop-opacity:0.7675"/>
			<stop  offset="0.2275" style="stop-color:#B6334F;stop-opacity:0.7796"/>
			<stop  offset="0.3309" style="stop-color:#E13F61;stop-opacity:0.7931"/>
			<stop  offset="0.3842" style="stop-color:#FA466C;stop-opacity:0.8"/>
			<stop  offset="0.4503" style="stop-color:#F24772;stop-opacity:0.8215"/>
			<stop  offset="0.55" style="stop-color:#DE4A82;stop-opacity:0.8538"/>
			<stop  offset="0.671" style="stop-color:#BC4E9C;stop-opacity:0.8931"/>
			<stop  offset="0.8087" style="stop-color:#8D54C0;stop-opacity:0.9379"/>
			<stop  offset="0.9585" style="stop-color:#515CED;stop-opacity:0.9865"/>
			<stop  offset="1" style="stop-color:#3F5EFB"/>
		</linearGradient>
		<polygon style="fill:url(#SVGID_00000098931409829339248820000015088146101001669265_);" points="107.1,49 107,48.8 73.3,68 
			73.3,94 132.3,61 132.3,35.7 		"/>
	</g>
</g>
<g>
	<path class="st0" d="M194.9,112.8c-12.8,0-23.3-7.1-23.3-23.5V44.2c0-4.6,2.8-7.6,6.8-7.6c4,0,6.9,3,6.9,7.6v20.7
		c3.5-4.1,8.8-7.5,14.9-7.5c15.2,0,21.3,12.8,21.3,24.5C221.5,100.9,210.5,112.8,194.9,112.8z M197.3,102c3.5,0,6.4-1.1,7.9-2.2
		c2.3-3.7,2.8-11,2.8-14.1c0-9.8-4.4-16.4-11.8-16.4c-4.4,0-8.1,2.1-10.9,4.8v14.4C185.3,99.1,192,102,197.3,102z"/>
	<path class="st0" d="M262.1,89.6h-17.4c1.8,9.4,8.4,11.8,14.9,11.8c4.1,0,6.9-1.5,9.2-1.5c3.6,0,5.5,2.4,5.5,5.2
		c0,2.4-1.3,3.7-2.4,4.4c-2.8,1.7-7.7,3.3-14.7,3.3c-15.9,0-26.1-10-26.1-25.9c0-15.9,9.7-29.5,26.1-29.5
		c13.8,0,18.9,10.5,18.9,20.2C276.1,87.6,272,89.6,262.1,89.6z M263.1,80.6c1.3-9.5-3.1-12.3-9.6-12.3c-1.5,0-3.7,0.3-5,0.9
		c-1.3,1.2-4.3,4.8-4.7,11.4H263.1z"/>
	<path class="st0" d="M317.5,63.9c0,3.9-2.7,6-6.2,6h-6.2v34.7c0,4.6-2.8,7.7-6.6,7.7c-4.2,0-6.9-3.1-6.9-7.7V69.9h-2.7
		c-3.4,0-6.1-2.1-6.1-5.9c0-3.5,2.7-5.5,6.1-5.5h2.7v-7.4c0-4.6,2.7-7.6,6.7-7.6c3.9,0,6.8,3,6.8,7.6v7.4h6.2
		C314.8,58.5,317.5,60.7,317.5,63.9z"/>
	<path class="st0" d="M356.5,63.9c0,3.9-2.7,6-6.2,6h-6.2v34.7c0,4.6-2.8,7.7-6.6,7.7c-4.2,0-6.9-3.1-6.9-7.7V69.9h-2.7
		c-3.4,0-6.1-2.1-6.1-5.9c0-3.5,2.7-5.5,6.1-5.5h2.7v-7.4c0-4.6,2.7-7.6,6.7-7.6c3.9,0,6.8,3,6.8,7.6v7.4h6.2
		C353.8,58.5,356.5,60.7,356.5,63.9z"/>
	<path class="st0" d="M392.4,89.6H375c1.8,9.4,8.4,11.8,14.9,11.8c4.1,0,6.9-1.5,9.2-1.5c3.6,0,5.5,2.4,5.5,5.2
		c0,2.4-1.3,3.7-2.4,4.4c-2.8,1.7-7.7,3.3-14.7,3.3c-15.9,0-26.1-10-26.1-25.9c0-15.9,9.7-29.5,26.1-29.5
		c13.8,0,18.9,10.5,18.9,20.2C406.4,87.6,402.3,89.6,392.4,89.6z M393.4,80.6c1.3-9.5-3.1-12.3-9.6-12.3c-1.5,0-3.7,0.3-5,0.9
		c-1.3,1.2-4.3,4.8-4.7,11.4H393.4z"/>
	<path class="st0" d="M443.9,70.8c-4.7,0-7.8,1.1-12.2,6.2v27.6c0,4.7-2.8,7.7-6.9,7.7c-4,0-6.8-3-6.8-7.7v-39
		c0-4.7,2.8-7.7,6.8-7.7c4.3,0,6.3,3.3,6.3,6.3V67c3.6-5.4,8-8.9,12.8-8.9c0,0,1-0.1,2.5,0.3c3,0.8,4.4,3.1,4.4,6.2
		C450.8,68.5,448.4,70.8,443.9,70.8z"/>
	<path class="st0" d="M495.3,54.9h-20.6v17.7h19.1c4.2,0,6.7,3.1,6.7,6.3c0,3.4-2.5,6.5-6.7,6.5h-19.1v19.4c0,4.8-3,7.5-7.1,7.5
		c-4.1,0-7.1-2.7-7.1-7.5V52.1c0-5.4,2.7-10.6,11.6-10.6h23.3c5.4,0,7.6,3.6,7.6,6.9C503,51.8,500.7,54.9,495.3,54.9z"/>
	<path class="st0" d="M518.9,51.4c-3.9,0-6.8-2.7-6.8-7.3c0-4.7,2.9-7.4,6.8-7.4c4,0,6.7,2.6,6.7,7.2
		C525.6,48.8,523.1,51.4,518.9,51.4z M512.2,65.6c0-4.7,2.8-7.7,6.8-7.7c4.1,0,6.9,3,6.9,7.7v39c0,4.7-2.8,7.7-6.9,7.7
		c-4,0-6.8-3-6.8-7.7V65.6z"/>
</g>
</svg>
