<?xml version="1.0" encoding="utf-8"?>
<!-- Generator: Adobe Illustrator 27.3.1, SVG Export Plug-In . SVG Version: 6.00 Build 0)  -->
<svg version="1.1" id="Layer_1" xmlns="http://www.w3.org/2000/svg" xmlns:xlink="http://www.w3.org/1999/xlink" x="0px" y="0px"
	 viewBox="0 0 156 180" style="enable-background:new 0 0 156 180;" xml:space="preserve">
<g id="Zj8xcL.tif">
	<g>
		<path d="M81,128.9c0,0.2,0,0.4,0,0.7c0,3.6,0,7.2,0,10.9c0,1.1-0.4,2.1-1.2,2.8c-2.6,2.5-5.1,5.1-7.7,7.6
			c-1.1,1.1-2.2,2.3-3.4,3.3c-0.7,0.6-1.6,1.2-2.5,1.6c-5.9,2.6-11.8,5.1-17.6,7.6c-0.5,0.2-0.7,0.5-0.7,1.1
			c-0.1,1.1,0.3,1.8,1.3,2.2c1,0.4,1.9,0.9,2.8,1.4c1.3,0.6,1.9,1.6,1.9,3c0,1.9-0.1,3.7,0,5.6c0.1,1.5-1.6,3.4-3.2,3.4
			c-3.8-0.1-7.6,0-11.4,0c-0.9,0-1.6-0.3-2.2-0.9c-1.5-1.5-3.1-3-4.6-4.5c-2.5-2.5-4.9-4.9-7.4-7.4c-1.3-1.3-1.5-2.4-0.7-4
			c3.8-7.7,7.7-15.4,11.6-23.1c0.5-0.9,1.1-1.6,2.1-2.2c4-2.4,8-4.8,12-7.2c0.7-0.4,1-0.8,1-1.7c-0.1-3.9-0.1-7.9,0-11.8
			c0-0.8,0.2-1.6,0.6-2.3c1.7-3.4,3.5-6.7,5.3-10c0.1-0.2,0.2-0.6,0.1-0.8c-1.5-4.9-2.9-9.7-4.4-14.6c-0.3-1-0.6-2-0.9-3.1
			c-0.3-0.8-0.5-1.6-0.9-2.4c-1.3-2.6-2.6-5.2-4-7.8c-0.2,0.1-0.4,0.2-0.6,0.3c-1.6,1.1-3.2,2.2-4.8,3.3c-0.8,0.6-1.6,0.8-2.6,0.8
			c-2.7,0-5.3,0-8,0c-0.4,0-0.8,0-1.3,0c0.3,0.8,0.6,1.4,0.9,2.1c0.6,1.4,1.1,2.9,1.7,4.3c0.1,0.3,0.4,0.6,0.7,0.8
			c3.4,1.7,6.7,3.4,10.1,5.1c1.9,0.9,2.5,2.4,1.6,4.3c-1.9,3.9-3.9,7.7-5.8,11.6c-0.5,1-1.4,1.6-2.5,1.9c-3.7,0.9-7.5,1.9-11.2,2.9
			c-1.5,0.4-2.7,0-3.6-1.4c-2-2.9-4-5.9-6-8.9c-0.8-1.2-0.7-2.5,0.2-3.6c0.4-0.4,0.8-0.8,1.2-1.2c-1.5-1.7-2.9-3.4-4.4-5.1
			c-3-3.5-6-7-9-10.5c-0.8-1-1.7-2-2.6-2.9c-0.7-0.8-1.1-1.6-1-2.7c0-2.8,0-5.5,0-8.3c0-1.3,0.5-2.2,1.5-2.9
			c8.8-5.9,17.7-11.8,26.5-17.7c0.8-0.5,1.6-0.8,2.5-0.8c5.2,0,10.5,0,15.7,0c1,0,2.1-0.2,3.1-0.4c3.2-0.8,6.3-1.7,9.5-2.4
			c1.2-0.3,2.4-0.3,3.7-0.2c1.2,0.1,1.9-0.3,2.4-1.5c0.5-1.1,0.5-1.7-0.2-2.7c-1.5-2-2.8-4.1-4.1-6.2c-0.4-0.6-0.5-1.3-0.6-2
			c-0.1-1.3,0-2.7,0-4.1c0-0.3-0.1-0.6-0.3-0.7c-2.5-2.5-5.1-5.1-7.6-7.6c-1.4-1.4-1.4-2.7-0.4-4.3c1.8-2.7,3.7-5.4,5.5-8.2
			c0.9-1.3,2-2,3.5-1.9c1.2,0.1,2.3,0,3.5,0c0.3,0,0.7-0.2,0.9-0.4C66.6,4,68,2.6,69.5,1.1C70.2,0.4,71,0,72,0.1c4,0,8,0,12,0
			c1,0,1.7,0.3,2.4,1c1.1,1.2,2.3,2.4,3.5,3.6c0.2-0.2,0.4-0.3,0.5-0.4c1.2-1.1,2.3-2.3,3.5-3.4c1.1-1,3.2-1,4.3,0
			c2,1.9,3.9,3.8,5.9,5.8c0.7,0.7,1,1.6,1,2.6c0,1.8,0,3.6,0,5.4c0,1.2-0.5,2.2-1.5,2.8c-2.2,1.5-4.4,3-6.6,4.4
			c-0.4,0.3-0.5,0.5-0.4,1c0.8,3.1,1.5,6.1,2.3,9.2c0.5,1.9-0.7,3.3-2.1,3.8c-0.2,0.1-0.4,0.1-0.7,0.2c0,0.9,0,1.8,0,2.8
			c0,1.2-0.5,2.1-1.6,2.7c-1.1,0.6-2.3,1.1-3.5,1.8c0.2,0.5,0.5,1,0.7,1.5c0.1,0.1,0.2,0.2,0.4,0.2c0.1,0,0.2,0,0.2,0
			c3.3-0.4,6.2,0.7,9.2,1.7c2.8,0.9,5.7,2,8.3,3.4c0.4,0.3,0.7,0.2,1-0.2c1.3-1.4,2.7-2.7,4.1-4.1c0.6-0.6,1.4-0.8,2.3-0.8
			c2.6,0,5.2,0,7.9,0c0.3,0,0.7,0,1,0c0-0.2,0-0.3-0.1-0.4c-3.3-5.5-6.7-11-10-16.5c-0.5-0.8-0.9-1.5-1.4-2.3
			c-0.6-0.9-0.7-1.8-0.4-2.8c1-3.8,1.9-7.6,2.9-11.4c0.5-1.9,1.5-2.6,3.5-2.6c4.7,0,9.4,0,14.1,0c1.3,0,2.3,0.5,3,1.6
			c1.9,2.9,3.8,5.7,5.7,8.5c1,1.6,0.9,2.8-0.4,4.2c-1.2,1.2-2.5,2.5-3.7,3.7c-0.3,0.3-0.3,0.5-0.1,0.8c4.9,7.4,9.9,14.7,14.8,22.1
			c0.5,0.7,1,1.5,1.5,2.2c0.4,0.6,0.6,1.3,0.6,2c0,3.7,0,7.5,0,11.2c0,1.4-0.6,2.4-1.6,3.2c-2.8,2.1-5.7,4.2-8.5,6.3
			c-1,0.7-1.9,1.4-2.9,2.2c-0.7,0.6-1.6,0.8-2.5,0.8c-9,0-18,0-27,0c-0.9,0-1.5,0.2-2.1,0.8c-2,2.1-4.2,4.2-6.2,6.3
			c-0.4,0.4-0.6,0.9-0.8,1.4c-1.6,5.5-3.2,11.1-4.8,16.6c-0.2,0.7-0.1,1.1,0.5,1.5c3.5,2.9,7,5.8,10.5,8.8c1.5,1.3,3.1,2.5,4.6,3.8
			c0.6,0.5,1.2,1.1,1.6,1.8c3.9,5.7,7.7,11.5,11.5,17.2c0.6,0.9,0.8,1.9,0.4,3c-2,6.5-3.9,13-5.9,19.5c-0.7,2.5-1.5,4.9-2.3,7.4
			c-0.1,0.4,0.1,0.6,0.4,0.7c1,0.5,2,1,3.1,1.5c1.3,0.6,1.9,1.6,1.9,3.1c0,1.8,0,3.5,0,5.3c0,2.1-1.4,3.5-3.5,3.6c-5,0-10,0-15,0
			c-0.8,0-1.5,0-2.3,0c-1.5,0-2.4-0.9-2.9-2.1c-0.5-1.4-0.9-2.9-1.2-4.4c-1.6-6.5-3.2-13-4.9-19.5c-0.2-0.8-0.2-1.6,0.1-2.3
			c0.7-2,1.4-4.1,2.1-6.1c0.1-0.4,0.1-0.5-0.2-0.8c-3-2.2-5.9-4.5-8.9-6.7c-0.9-0.7-1.6-1.4-2.2-2.3c-1.3-2-2.6-3.9-3.8-5.8
			C82.6,128.9,82.1,128.6,81,128.9z M120,59.8c0.2,0,0.4,0,0.6,0c2.1,0,4.2,0,6.2,0c0.3,0,0.7-0.2,0.8-0.4c1.1-1.6,2.2-3.2,3.3-4.9
			c0.1-0.1,0-0.5-0.1-0.7c-0.9-1-1.9-1.9-2.9-2.9c-0.1-0.1-0.4-0.3-0.6-0.3c-2.9,0-5.8,0-8.7,0c-0.3,0-0.6,0.2-0.8,0.4
			c-1.6,1.5-3.1,3.1-4.6,4.5c-1.1,1-2.3,1.4-3.7,0.6c-0.2-0.1-0.5-0.2-0.7-0.4c-2.7-1.4-5.4-2.6-8.2-3.6c-3.3-1.2-6.6-1.9-10.2-1.6
			c-1.4,0.1-2.5-0.5-3.2-1.9c-0.9-1.9-1.9-3.8-2.8-5.7c-0.8-1.8-0.3-3.3,1.5-4.2c1.2-0.6,2.4-1.2,3.6-1.8c0.4-0.2,0.6-0.5,0.6-1
			c0-1.2,0-2.4,0-3.6c0-1.2,0.5-2.1,1.6-2.6c0.5-0.2,0.5-0.5,0.4-1c-0.5-1.7-0.9-3.4-1.3-5.1c-0.1-0.6-0.4-0.9-1-1.1
			c-1.9-0.4-3.9-0.9-5.8-1.4c-1.4-0.3-1.3-0.3-2,0.9c-1.3,2.7-2.7,5.3-4,8c-0.1,0.2-0.2,0.4-0.3,0.6c-1.1,1.8-3.1,2.2-4.7,0.8
			c-1.1-1-2.1-2-3.1-3c-0.5-0.5-1-1.3-1.6-1.3c-0.6-0.1-1.3,0.5-1.9,0.8c0,0,0,0-0.1,0C66.2,28.6,66,28.8,66,29c0,0.7,0,1.4,0,2.1
			c0,0.6,0.1,1.1,0.5,1.6c1.6,2.4,3.2,4.9,4.9,7.3c0.8,1.1,0.9,2.2,0.3,3.3c-1,1.9-1.9,3.8-2.9,5.7c-0.6,1.2-1.7,1.8-3.1,1.8
			c-1.4,0-2.8,0-4.2,0c-0.6,0-1.2,0-1.7,0.2c-2.7,0.7-5.4,1.4-8.2,2.1c-2,0.5-3.9,0.8-6,0.8c-4.5-0.1-9,0-13.5,0
			c-0.9,0-1.6,0.2-2.4,0.7c-2.6,1.8-5.3,3.6-8,5.3c-5.1,3.4-10.1,6.8-15.2,10.2c-0.4,0.3-0.5,0.6-0.5,1c0,1.6,0,3.2,0,4.8
			c0,0.6,0.2,1.1,0.6,1.5c3.4,4,6.8,8,10.3,11.9c1.7,1.9,3.3,3.8,4.9,5.8c0.4,0.5,0.7,0.7,1.3,0.7c1.2,0,2.5,0,3.7,0
			c0.8,0,1.5,0.2,2.1,0.7c1.1,1,2.1,2,3.2,3c-1.5,1.4-2.8,2.8-4.3,4.2c-0.5-0.5-1.1-1.1-1.7-1.6c-0.2-0.2-0.4-0.3-0.6-0.3
			c-1,0-2,0-2.9,0c-0.7,0-0.8,0.2-0.4,0.8c0.8,1.2,1.7,2.5,2.5,3.7c0.7,1,0.7,1,1.9,0.7c2.2-0.5,4.4-1.1,6.7-1.6
			c0.5-0.1,0.8-0.3,1.1-0.8c0.8-1.8,1.8-3.5,2.6-5.2c0.4-0.7,0.7-1.5,1.1-2.2c-0.1-0.1-0.2-0.1-0.3-0.2c-2.8-1.4-5.5-2.8-8.3-4.1
			c-1.2-0.6-2-1.4-2.5-2.6c-1.2-3-2.4-5.9-3.6-8.9c-0.7-1.8-1.5-3.7-2.2-5.5c-0.6-1.6,0.2-3.3,1.8-3.8c1.3-0.5,2.3,0,3.2,0.9
			c0.5,0.5,1,1.1,1.6,1.6c0.2,0.2,0.5,0.3,0.8,0.3c3.1,0,6.1,0,9.2,0c0.4,0,0.8-0.2,1.1-0.4c1.8-1.2,3.6-2.5,5.4-3.7
			c0.8-0.5,1.4-1.2,1.6-2.2c0.2-0.9,0.6-1.8,0.9-2.8c-0.3,0-0.5,0-0.8,0c-1.7,0-3.4,0-5.1,0c-0.9,0-1.6,0.2-2.3,0.7
			c-2.2,1.5-4.4,3-6.6,4.5c-0.4,0.2-0.5,0.2-0.8-0.2c-0.9-1.5-1.9-2.9-2.9-4.4c0.1-0.1,0.3-0.3,0.5-0.4c2.7-1.8,5.5-3.6,8.2-5.5
			c0.7-0.5,1.5-0.7,2.4-0.7c3.7,0,7.5,0,11.2,0c2.2,0,3.8,2.1,3,4.1c-0.8,2.2-1.5,4.5-2.3,6.8c-0.2,0.6-0.2,1.1,0.1,1.6
			c1.3,2.6,2.6,5.2,3.9,7.8c0.3,0.5,0.5,0.7,1.1,0.7c6.7,0,13.5,0,20.2,0c0.4,0,0.9-0.1,1.2-0.3c1.6-0.8,3.2-1.6,4.9-2.4
			c0.8-0.4,1.5-0.4,2.3,0c1.3,0.7,2.6,1.3,3.8,1.9c0.9,0.5,1.8,0.8,2.9,0.8c2.8-0.1,5.5,0,8.3-0.1c0.3,0,0.7-0.2,0.9-0.4
			c2.1-2.1,4.2-4.1,6.2-6.2c0.2-0.2,0.3-0.6,0.2-0.9c-0.8-3.1-1.5-6.2-2.3-9.3c-0.1-0.4,0-0.5,0.3-0.6c1.6-0.4,3.2-0.8,4.8-1.2
			c0.4-0.1,0.6,0,0.7,0.4c0.7,2.8,1.4,5.6,2.1,8.4c0.1,0.6,0.3,0.8,0.9,0.8c4.7,0,9.5,0,14.2,0c3.7,0,7.4,0,11.1,0
			c0.4,0,0.8-0.1,1.1-0.4c3-2.2,6-4.5,9.1-6.8c0.4-0.3,0.5-0.5,0.5-1c0-2.5-0.1-5,0-7.4c0-1.2-0.3-2.1-1-3.1
			c-4.5-6.7-9-13.5-13.5-20.2c-1.2-1.7-2.4-3.4-3.7-5.1c-0.6-0.8-1.4-1.2-2.5-1c-0.3,0.1-0.7,0-1,0c-0.8,0-1.6,0-2.3,0c0-2,0-4,0-6
			c1.9,0,3.7,0,5.5,0c1.1,0,2,0.3,2.7,1c0.3,0.2,0.5,0.5,0.8,0.7c0.6-0.6,1.2-1.2,1.8-1.8c0.3-0.3,0.3-0.5,0.1-0.8
			c-1.1-1.6-2.1-3.2-3.2-4.8c-0.1-0.2-0.5-0.4-0.8-0.4c-3.4,0-6.7,0-10.1,0c-0.4,0-0.5,0.1-0.6,0.5c-0.5,2.2-1.1,4.5-1.7,6.7
			c-0.3,1-0.1,1.7,0.4,2.5c4.2,6.9,8.3,13.8,12.4,20.6c1.4,2.3,2.8,4.6,4.2,6.9c0.7,1.2,0.8,2.3,0,3.5c-2,2.9-3.9,5.9-5.9,8.8
			c-0.7,1-1.7,1.5-2.9,1.5c-2.7,0-5.4,0-8.1,0c-0.2,0-0.4,0-0.5,0C120,63.8,120,61.8,120,59.8z M75,116.8c0,0.3,0,0.5,0,0.7
			c-0.1,0.8,0.2,1.3,0.7,1.8c1.1,1,2.1,2.1,3.2,3.2c0.2,0.2,0.5,0.3,0.7,0.3c0.8,0,1.7,0,2.5,0c0.3,0,0.7-0.2,1-0.4
			c1-0.9,1.8-1.9,2.8-2.8c0.8-0.7,1.3-1.4,1-2.5c0-0.1,0-0.2,0-0.3c2,0,4,0,6,0c0,0.8,0,1.6,0,2.4c0.1,1.3-0.4,2.3-1.3,3.1
			c-1.2,1.1-2.3,2.2-3.4,3.4c-0.2,0.2-0.4,0.6-0.3,0.7c0.5,0.8,1,1.5,1.5,2.3c6.4-3.2,12.7-6.4,19.1-9.6c-0.8-0.7-1.5-1.2-2.2-1.7
			c-3.7-3.1-7.4-6.2-11.1-9.3c-0.3-0.2-0.7-0.4-1.1-0.4c-4.2,0-8.4,0-12.6,0c-6.2,0-12.5,0-18.7,0c-0.5,0-0.9,0.1-1.1,0.6
			c-1.5,2.9-3.1,5.8-4.6,8.7c-0.2,0.3-0.3,0.7-0.3,1c0,3.4,0,6.7,0,10.1c0,0.2,0,0.4,0,0.6c6,0,12,0,18,0c0-0.5,0-0.9,0-1.4
			c0-0.2-0.1-0.5-0.3-0.6c-1.4-1.4-2.7-2.9-4.2-4.2c-1.9-1.6-1.4-3.7-1.5-5.8C71,116.8,73,116.8,75,116.8z M75,134.8
			c-0.2,0-0.4,0-0.5,0c-5.5,0-11.1,0.1-16.6,0c-2.1,0-3.9,0.4-5.7,1.5c-3.2,2.1-6.5,3.9-9.7,5.9c-0.9,0.5-1.5,1.2-1.9,2.1
			c-0.6,1.3-1.2,2.6-1.8,3.8c-2.6,5.2-5.1,10.3-7.8,15.4c-0.3,0.6-0.2,0.8,0.2,1.3c2.9,2.8,5.7,5.7,8.6,8.6c0.4,0.4,0.7,0.5,1.2,0.5
			c2.2,0,4.3,0,6.5,0c0.2,0,0.4,0,0.5,0c0.1-1.1,0.1-1.1-0.8-1.6c-1.2-0.6-2.4-1.2-3.5-1.8c-1.1-0.6-1.7-1.5-1.7-2.8
			c0-1.9,0-3.7,0-5.6c0-1.4,0.6-2.4,2-3c5.3-2.3,10.7-4.6,16-6.9c2.3-1,4.5-1.8,6.3-3.8c2.6-2.9,5.5-5.6,8.3-8.3
			c0.2-0.2,0.5-0.5,0.5-0.7C75,137.8,75,136.4,75,134.8z M93.1,133.5c0.7,0.5,1.3,0.9,1.9,1.4c2.8,2.1,5.6,4.2,8.4,6.2
			c1.6,1.1,1.9,2.2,1.3,4.1c-0.8,2.4-1.6,4.8-2.4,7.2c-0.1,0.4-0.1,0.9-0.1,1.3c0.3,1.2,0.6,2.4,0.9,3.6c1.3,5.3,2.6,10.6,3.9,15.9
			c0.1,0.5,0.3,0.7,0.9,0.7c3.8,0,7.6,0,11.4,0c0.2,0,0.4,0,0.5,0c0.1-1.1,0.1-1.1-0.8-1.6c-1.2-0.6-2.3-1.1-3.5-1.7
			c-0.7-0.4-1.2-0.9-1.5-1.6c-0.4-0.9-0.2-1.7,0.1-2.6c1.7-5.8,3.5-11.5,5.2-17.3c1-3.2,1.9-6.5,3-9.7c0.2-0.7,0.2-1.2-0.2-1.8
			c-3-4.4-5.9-8.8-8.8-13.3c-0.3-0.5-0.6-0.6-1.1-0.3c-2.9,1.5-5.8,2.9-8.8,4.4C100.1,130,96.7,131.8,93.1,133.5z M58,86.8
			c0.1,0.3,0.1,0.4,0.1,0.6c1.4,4.6,2.8,9.2,4.2,13.8c0.2,0.5,0.4,0.7,0.9,0.7c10,0,19.9,0,29.9,0c0.5,0,0.6-0.1,0.8-0.6
			c1.3-4.7,2.7-9.3,4-14c0-0.1,0-0.2,0.1-0.4c-0.3,0-0.5,0-0.7,0c-2.3,0-4.6,0-6.9,0c-0.6,0-1.2-0.2-1.8-0.4
			c-1.5-0.7-2.9-1.4-4.3-2.1c-0.2-0.1-0.5-0.1-0.7,0c-1.4,0.7-2.7,1.4-4.1,2c-0.7,0.3-1.6,0.5-2.4,0.5c-5.9,0-11.8,0-17.7,0
			C59,86.8,58.6,86.8,58,86.8z M96.1,7.1c-0.6,0.6-1.2,1.1-1.8,1.7c-0.6,0.6-1.2,1.1-1.7,1.7c-1.8,1.7-3.2,1.7-5.1,0
			c-0.3-0.3-0.6-0.6-0.9-0.9c-1.1-1.1-2.3-2.3-3.4-3.4c-0.2-0.2-0.5-0.4-0.7-0.4c-2.9,0-5.7,0-8.6,0c-0.3,0-0.6,0.2-0.9,0.4
			c-1.5,1.5-3.1,3-4.6,4.5c-0.8,0.8-1.7,1.1-2.8,1.1c-1.1,0-2.2,0-3.4,0c-0.4,0-0.6,0.1-0.9,0.5c-1,1.6-2.1,3.1-3.1,4.7
			c-0.3,0.4-0.3,0.6,0.1,0.9c1.7,1.6,3.4,3.3,5,5c0.3,0.3,0.5,0.3,0.8,0.1c1.3-0.6,2.6-1.3,3.9-1.9c1-0.5,1.9-0.3,2.7,0.3
			c0.4,0.3,0.7,0.6,1.1,0.9c0.8,0.8,1.6,1.5,2.5,2.3c0.1-0.1,0.2-0.3,0.3-0.5c1.2-2.4,2.4-4.9,3.7-7.3c0.9-1.7,2.1-2.2,3.9-1.7
			c3.1,0.8,6.3,1.5,9.4,2.4c0.7,0.2,1.2,0.1,1.8-0.3c1.6-1.1,3.3-2.3,5-3.4c0.6-0.4,0.8-0.8,0.8-1.5c-0.1-0.6,0-1.2,0-1.8
			c0-0.2,0-0.4-0.2-0.6C97.9,9,97,8,96.1,7.1z"/>
		<path d="M89.8,51.9c-0.9,2.7-1.8,5.4-2.7,8.1c-0.3,0.9-0.3,0.8-1.1,0.5c-1.4-0.5-2.8-1-4.2-1.4c-0.5-0.1-0.6-0.3-0.5-0.8
			c0.9-2.6,1.8-5.2,2.6-7.8c0.1-0.3,0.2-0.6,0.6-0.4c1.5,0.5,3.1,1,4.6,1.6C89.4,51.7,89.6,51.8,89.8,51.9z"/>
		<path d="M72.5,60.7c-0.8-2.4-1.6-4.8-2.4-7.1c-0.1-0.4-0.2-0.9-0.4-1.2c-0.2-0.5,0-0.7,0.4-0.8c1.4-0.4,2.8-0.9,4.1-1.4
			c0.3-0.1,0.5-0.2,0.9-0.3c0.1,0.2,0.2,0.4,0.3,0.6c0.9,2.6,1.8,5.2,2.6,7.9c0.1,0.2-0.1,0.5-0.2,0.6
			C76.1,59.5,74.4,60.1,72.5,60.7z"/>
		<path d="M72,68.9c0,2,0,3.9,0,5.9c-2,0-3.9,0-5.9,0c0-1.9,0-3.9,0-5.9C68,68.9,70,68.9,72,68.9z"/>
		<path d="M102,74.8c-2,0-4,0-6,0c0-2,0-3.9,0-6c0.2,0,0.5,0,0.7,0c1.6,0,3.2,0,4.7,0c0.3,0,0.5,0,0.5,0.4C102,71,102,72.9,102,74.8
			z"/>
		<path d="M43.4,155.4c-0.9-1.8-1.8-3.5-2.6-5.3c1.6-0.8,3.1-1.5,4.6-2.3c1.9-1,3.8-1.9,5.7-2.9c0.4-0.2,0.6-0.5,0.8-1
			c0.7-2.2,1.5-4.4,2.2-6.6c0.1-0.3,0.2-0.5,0.7-0.4c1.5,0.5,2.9,1,4.4,1.5c0.6,0.2,0.7,0.4,0.5,1c-0.9,2.6-1.8,5.2-2.6,7.7
			c-0.4,1.1-1,1.9-2.1,2.4c-3.4,1.7-6.9,3.4-10.3,5.2C44.3,155,43.9,155.2,43.4,155.4z"/>
		<path d="M108,161.8c0-2.5,0-5,0-7.5c0-0.5-0.1-1-0.3-1.4c-0.7-1.4-1.4-2.8-2.1-4.3c-0.1-0.2-0.1-0.3-0.2-0.5
			c1.3-0.6,2.5-1.3,3.8-1.9c0.2-0.1,0.5-0.2,0.7-0.4c1-0.6,0.8-0.4,1.2,0.4c0.8,1.6,1.6,3.1,2.4,4.7c0.4,0.8,0.6,1.5,0.6,2.4
			c0,2.6,0,5.1,0,7.7c0,0.2,0,0.4,0,0.7C112,161.8,110,161.8,108,161.8z"/>
		<path d="M116.9,140.8c-2,0-4,0-6,0c-1,0-1.7-0.5-2.4-1.2c-1.6-1.7-3.3-3.3-4.9-5c-0.2-0.2-0.4-0.4-0.6-0.6c1.4-1.3,2.8-2.7,4.2-4
			c0-0.1-0.1-0.2-0.1-0.2c0.2,0.2,0.4,0.3,0.6,0.5c1.4,1.4,2.8,2.8,4.2,4.2c0.2,0.2,0.6,0.4,1,0.4c1.2,0,2.5,0,3.7,0
			c0.3,0,0.5,0,0.5,0.4c0,1.8,0,3.5,0,5.3C117,140.6,117,140.7,116.9,140.8z"/>
		<path d="M76.7,93.1c2.2-1.1,4.3-2.1,6.4-3.1c0.7-0.3,1.3-0.2,2,0.1c2,1,4,2,6.1,3.1c-0.9,1.8-1.7,3.5-2.6,5.3
			c-1.4-0.7-2.8-1.4-4.2-2.2c-0.3-0.2-0.6-0.2-0.9,0c-1.4,0.7-2.7,1.4-4.2,2.1C78.5,96.7,77.6,94.9,76.7,93.1z"/>
	</g>
</g>
</svg>
