<?xml version="1.0" encoding="utf-8"?>
<!-- Generator: Adobe Illustrator 27.3.1, SVG Export Plug-In . SVG Version: 6.00 Build 0)  -->
<svg version="1.1" id="Layer_1" xmlns="http://www.w3.org/2000/svg" xmlns:xlink="http://www.w3.org/1999/xlink" x="0px" y="0px"
	 viewBox="0 0 164.1 191.5" style="enable-background:new 0 0 164.1 191.5;" xml:space="preserve">
<g id="U7siUz.tif">
	<g>
		<path d="M0.1,95.7c0-26.2,0-52.3,0-78.5C0.1,6.5,6.7,0,17.5,0c33.4,0,66.8,0,100.2,0c10.7,0,17.4,6.6,17.4,17.3
			c0,29.9,0,59.8,0,89.7c0,0.6,0,1.2,0,1.7c-0.1,1.9-1.2,3-3,3c-1.7,0-2.7-1.1-2.9-2.9c-0.1-0.7,0-1.5,0-2.2c0-29.7,0-59.3,0-89
			c0-7.9-3.8-11.6-11.6-11.6C84.2,6,50.9,6,17.7,6C9.8,6,6,9.8,6,17.6c0,52,0,104,0,156c0,8.1,3.7,11.8,11.7,11.8
			c25.6,0,51.2,0,76.7,0c0.7,0,1.5,0,2.2,0c1.8,0.1,2.8,1.1,2.9,2.8c0.1,1.8-1,2.8-2.7,3.1c-0.7,0.1-1.5,0.1-2.2,0.1
			c-25.7,0-51.5-0.1-77.2,0.1C7.9,191.6-0.1,184.6,0,174C0.3,147.9,0.1,121.8,0.1,95.7z"/>
		<path d="M164.1,154.2c0,20.5-16.7,37.3-37.2,37.2c-20.3-0.1-36.9-16.8-36.9-37.3c0-20.4,16.7-37.1,37.1-37
			C147.5,117.1,164.1,133.7,164.1,154.2z M96,154c-0.1,17.2,13.8,31.3,30.9,31.4c17,0.1,31.1-13.8,31.2-30.8
			c0.1-17.3-13.7-31.4-30.8-31.5C110.1,122.9,96.1,136.8,96,154z"/>
		<path d="M55.7,43.4c-4.8-7.7-4.1-15.5,1.8-20.8c5.5-5,13.9-5.1,19.7-0.3c6.2,5.1,7,12.8,2.2,21.1c0.7,0.4,1.3,0.9,2,1.3
			c6.8,4.6,10.8,11,11.7,19.2c0.3,3.1-0.7,4.2-3.8,4.2c-14.6,0-29.2,0-43.7,0c-2.9,0-3.9-1.1-3.6-4c0.8-8.2,4.7-14.6,11.5-19.2
			C54.2,44.3,54.9,43.9,55.7,43.4z M48.3,61.9c13,0,25.6,0,38.9,0c-1.2-2.5-2.1-4.7-3.3-6.7c-2.5-3.8-6.1-6.2-10.4-7.8
			c-1.1-0.4-2.5-1.6-2.7-2.7c-0.2-0.9,1-2.1,1.7-3.2c0.2-0.3,0.5-0.4,0.8-0.6c3.4-2.7,4.4-7.4,2.4-11.2c-2-3.9-6.3-5.8-10.5-4.7
			c-4,1.1-6.8,4.9-6.6,9.2c0.1,3.3,1.7,5.6,4.3,7.5c0.9,0.6,1.8,2.1,1.6,3c-0.2,1-1.5,1.9-2.5,2.7c-0.5,0.4-1.2,0.4-1.9,0.7
			C54,50.7,50.1,55.2,48.3,61.9z"/>
		<path d="M67.3,92.4c-9.2,0-18.3,0-27.5,0c-2.7,0-4.2-1.3-3.8-3.4c0.3-2.2,2-2.6,3.9-2.6c8.8,0,17.6,0,26.5,0
			c9.6,0,19.1-0.1,28.7,0.1c1.3,0,3,0.8,3.7,1.8c1.3,2-0.6,4.1-3.5,4.1C86,92.4,76.7,92.4,67.3,92.4z"/>
		<path d="M67.4,116.7c-8.9,0-17.8,0-26.7,0c-0.8,0-1.9,0.2-2.4-0.2c-0.9-0.7-2-1.9-2.1-2.9c0-0.9,1.2-1.9,2.1-2.6
			c0.4-0.3,1.3-0.2,1.9-0.2c18.2,0,36.4,0,54.7,0c0.7,0,1.5-0.2,1.9,0.2c0.9,0.8,2.2,1.9,2.2,2.8c0,1-1.3,2.1-2.2,2.8
			c-0.6,0.4-1.6,0.2-2.4,0.2C85.3,116.7,76.3,116.7,67.4,116.7z"/>
		<path d="M122.5,156.7c4.8-4.5,9.5-9,14.2-13.4c0.6-0.6,1.1-1.5,1.8-1.6c1.2-0.2,2.9-0.3,3.7,0.4c0.7,0.6,0.4,2.3,0.3,3.5
			c0,0.5-0.7,0.9-1.1,1.3c-5.2,5.3-10.5,10.7-15.7,16c-2.5,2.5-3.9,2.4-6.1-0.3c-1.8-2.2-3.7-4.5-5.5-6.8c-1.3-1.6-1.5-3.2,0.2-4.6
			c1.6-1.2,3.1-0.7,4.4,0.8C120.1,153.7,121.5,155.4,122.5,156.7z"/>
	</g>
</g>
</svg>
